# xmcd
#
# Track frame offsets: 
#        150
#        19075
#        36115
#        51298
#        69103
#        88272
#        107178
#        123839
#        140420
#
# Disc length: 2106 seconds
#
# Revision: 0
# Processed by: cddbd v1.5.2PL0 Copyright (c) Steve Scherf et al.
# Submitted via: ExactAudioCopy v0.99pb5
#
DISCID=75083809
DTITLE=Frank Reyes - Te Regalo el Mar
DYEAR=2007
DGENRE=Latin
TTITLE0=Amor Desperdiciado
TTITLE1=No Te Vayas
TTITLE2=Me Curare
TTITLE3=Ven, Que Se Muere Mi Alma
TTITLE4=Dime Donde Estas
TTITLE5=Me Gustas
TTITLE6=Te Regalo el Mar
TTITLE7=No Me Importa, No
TTITLE8=Tan Lejos de Ti (Merengue)
EXTD=
EXTT0=
EXTT1=
EXTT2=
EXTT3=
EXTT4=
EXTT5=
EXTT6=
EXTT7=
EXTT8=
PLAYORDER=
